<svg width="50" height="50" viewBox="0 0 50 50" fill="none" xmlns="http://www.w3.org/2000/svg">
<g clip-path="url(#clip0_1_4861)">
<path d="M25 50C38.8071 50 50 38.8071 50 25C50 11.1929 38.8071 0 25 0C11.1929 0 0 11.1929 0 25C0 38.8071 11.1929 50 25 50Z" fill="#FF6529"/>
<path d="M49.4276 30.3344L32.2288 13.1357C32.2288 13.1357 19.2438 13.081 19.2438 25.0388C19.2438 36.9966 19.2438 36.9966 19.2438 36.9966L31.415 49.1677C40.4233 46.7827 47.4361 39.496 49.4276 30.3344Z" fill="#E53B07"/>
<path d="M24.9752 21.1984C23.8242 21.1984 22.7234 21.4172 21.712 21.815C21.7911 20.7121 22.2406 19.6724 22.9999 18.8566C24.3807 17.373 26.5643 16.9025 28.4335 17.6863L30.0389 18.3594L32.229 13.1358L30.6235 12.4627C26.5747 10.7651 21.8447 11.784 18.8538 14.9977C17.0355 16.9513 16.0341 19.497 16.0341 22.1658V29.7457V30.1395C16.0341 35.0696 20.0451 39.0807 24.9753 39.0807C29.9053 39.0807 33.9164 35.0697 33.9164 30.1395C33.9163 25.2095 29.9052 21.1984 24.9752 21.1984ZM24.9752 33.4166C23.1682 33.4166 21.6981 31.9465 21.6981 30.1395C21.6981 28.3325 23.1682 26.8624 24.9752 26.8624H24.9753C26.7822 26.8624 28.2523 28.3325 28.2523 30.1395C28.2522 31.9466 26.7821 33.4166 24.9752 33.4166Z" fill="#F8FFFB"/>
<path d="M28.4336 17.6861L30.0391 18.3589L32.2285 13.1353L30.623 12.4624C28.8125 11.7037 26.8662 11.4878 25 11.7681V17.5679C26.0986 17.1968 27.3223 17.2193 28.4336 17.6861ZM25 21.1978V26.8619C25.8936 26.8687 26.7041 27.2359 27.291 27.8228C27.8848 28.4165 28.252 29.2359 28.252 30.1392C28.252 31.938 26.7959 33.4029 25 33.4165V39.0806C29.9189 39.0669 33.916 35.0611 33.916 30.1392C33.916 25.2164 29.9189 21.2115 25 21.1978Z" fill="#D8D8D8"/>
</g>
<defs>
<clipPath id="clip0_1_4861">
<rect width="50" height="50" fill="white"/>
</clipPath>
</defs>
</svg>
