<svg width="19" height="19" viewBox="0 0 19 19" fill="none" xmlns="http://www.w3.org/2000/svg">
<g clip-path="url(#clip0_1_4759)">
<path d="M1.14343 0.0751953L2.27549 16.0269L9.19578 18.3016L16.1161 16.0269L17.2481 0.0751953H1.14343Z" fill="#FF7816"/>
<path d="M17.248 0.0751953L16.116 16.0269L9.19568 18.3016V0.0751953H17.248Z" fill="#FF4B00"/>
<path d="M14.2258 4.91618H6.31221L6.50439 7.58607H14.0336L13.5743 14.0507L9.19569 15.5138L4.81708 14.0507L4.66759 11.8935H6.8035L6.84619 12.4809L9.19569 13.2604L11.5452 12.4809L11.7374 9.72197H4.5074L4.01611 2.78027H14.3753L14.2258 4.91618Z" fill="#ECECF1"/>
<path d="M14.0336 7.58594L13.5743 14.0505L9.19568 15.5137V13.2603L11.5452 12.4807L11.7374 9.72185H9.19568V7.58594H14.0336Z" fill="#E2E2E7"/>
<path d="M14.3753 2.78027L14.2258 4.91618H9.19568V2.78027H14.3753Z" fill="#E2E2E7"/>
</g>
<defs>
<clipPath id="clip0_1_4759">
<rect width="18.2264" height="18.2264" fill="white" transform="translate(0.0754395 0.0751953)"/>
</clipPath>
</defs>
</svg>
