<svg width="25" height="24" viewBox="0 0 25 24" fill="none" xmlns="http://www.w3.org/2000/svg">
<rect x="0.666992" width="24" height="24" rx="4" fill="#E6FFF3"/>
<g clip-path="url(#clip0_1_4957)">
<path d="M12.6668 6.85742C9.82646 6.85742 7.52393 9.15995 7.52393 12.0003C7.52393 14.8406 9.82646 17.1431 12.6668 17.1431C15.5071 17.1431 17.8096 14.8406 17.8096 12.0003C17.8066 9.16122 15.5058 6.86046 12.6668 6.85742ZM14.8326 12.1641C14.797 12.2355 14.7391 12.2934 14.6677 12.3291V12.3309L11.7289 13.8003C11.5474 13.891 11.3268 13.8174 11.2361 13.6359C11.2103 13.5843 11.1971 13.5273 11.1974 13.4697V10.5309C11.1973 10.328 11.3617 10.1635 11.5646 10.1634C11.6216 10.1633 11.6779 10.1766 11.7289 10.2021L14.6677 11.6715C14.8493 11.762 14.9231 11.9826 14.8326 12.1641Z" fill="#00C968"/>
</g>
<defs>
<clipPath id="clip0_1_4957">
<rect x="7.52393" y="6.85742" width="10.2857" height="10.2857" rx="4" fill="white"/>
</clipPath>
</defs>
</svg>
