<svg width="19" height="19" viewBox="0 0 19 19" fill="none" xmlns="http://www.w3.org/2000/svg">
<g clip-path="url(#clip0_1_4782)">
<path d="M9.09856 3.45241C8.25637 4.04474 7.30186 4.71609 6.79042 5.8268C5.90209 7.76461 8.60815 9.87835 8.72381 9.96738C8.75069 9.98807 8.78287 9.99839 8.81494 9.99839C8.84901 9.99839 8.88312 9.98675 8.91081 9.96354C8.96453 9.91861 8.97977 9.84229 8.94751 9.78014C8.93772 9.76127 7.96638 7.87454 8.00248 6.52101C8.01526 6.04958 8.67501 5.51478 9.37345 4.94859C10.0132 4.42999 10.7383 3.84222 11.1626 3.15463C12.094 1.64112 11.0588 0.152884 11.0482 0.138004C11.0071 0.080263 10.9312 0.0593667 10.8663 0.0878099C10.8015 0.116431 10.7655 0.186525 10.7803 0.255835C10.7824 0.265696 10.9838 1.24986 10.4236 2.26381C10.1928 2.68281 9.68576 3.03943 9.09856 3.45241Z" fill="#DB380E"/>
<path d="M12.6468 4.12031C12.7062 4.07556 12.7236 3.99393 12.6877 3.92879C12.6517 3.86364 12.5734 3.83491 12.5038 3.86133C12.3608 3.91572 9.00037 5.21105 9.00037 6.77614C9.00037 7.85503 9.46123 8.42496 9.79774 8.84118C9.92974 9.00443 10.0437 9.1454 10.0812 9.26576C10.187 9.6126 9.93651 10.2395 9.83117 10.4518C9.8008 10.5128 9.81568 10.5868 9.86734 10.6314C9.89525 10.6555 9.9301 10.6677 9.96498 10.6677C9.99467 10.6677 10.0245 10.6589 10.0503 10.6409C10.1081 10.6008 11.4624 9.64325 11.2195 8.48961C11.129 8.0511 10.9135 7.73072 10.7234 7.44799C10.4288 7.00995 10.2161 6.69355 10.5388 6.10916C10.917 5.42752 12.6294 4.13326 12.6468 4.12031Z" fill="#DB380E"/>
<path d="M3.89921 10.6917C3.84162 10.8642 3.86881 11.0352 3.97778 11.1866C4.34206 11.6924 5.6324 11.9708 7.61125 11.9708C7.61136 11.9708 7.61143 11.9708 7.6115 11.9708C7.87963 11.9708 8.16271 11.9655 8.45266 11.9551C11.6165 11.8419 12.79 10.8563 12.8384 10.8144C12.8911 10.7687 12.9052 10.6926 12.8724 10.6311C12.8396 10.5696 12.7689 10.5387 12.7013 10.5574C11.587 10.8616 9.50638 10.9696 8.06321 10.9696C6.44836 10.9696 5.62596 10.8533 5.42461 10.7674C5.52792 10.6255 6.16513 10.3722 6.95475 10.2169C7.03022 10.2021 7.08208 10.1324 7.07461 10.0558C7.06713 9.97928 7.00284 9.9209 6.92591 9.9209C6.46306 9.9209 4.14185 9.95806 3.89921 10.6917Z" fill="#73A1FB"/>
<path d="M14.4858 9.67676C13.8332 9.67676 13.2144 10.0038 13.1884 10.0177C13.128 10.05 13.0974 10.1192 13.114 10.1857C13.1306 10.2521 13.1903 10.2988 13.2587 10.2988C13.2726 10.2988 14.6507 10.3101 14.7755 11.0975C14.8861 11.7768 13.4716 12.8775 12.9172 13.2443C12.8573 13.2839 12.8341 13.3604 12.8619 13.4266C12.8856 13.483 12.9404 13.5182 12.9996 13.5182C13.0099 13.5182 13.0204 13.5172 13.0308 13.515C13.1623 13.4868 16.2491 12.8066 15.9227 11.0094C15.7236 9.90797 15.0314 9.67676 14.4858 9.67676Z" fill="#73A1FB"/>
<path d="M12.3693 13.0242C12.3801 12.9667 12.3561 12.9081 12.3082 12.8745L11.5681 12.356C11.532 12.3308 11.4864 12.3228 11.444 12.334C11.4363 12.336 10.6623 12.5395 9.53859 12.6642C9.09261 12.7143 8.59309 12.7407 8.09392 12.7407C6.9705 12.7407 6.23596 12.6087 6.12899 12.5119C6.11482 12.4847 6.1193 12.4723 6.12183 12.4654C6.14127 12.4114 6.24543 12.3472 6.31257 12.3218C6.38672 12.2943 6.4267 12.2138 6.40363 12.1382C6.38063 12.0625 6.30264 12.0179 6.22567 12.0364C5.48323 12.2156 5.12019 12.4661 5.14661 12.781C5.19353 13.3394 6.4869 13.6261 7.58031 13.7018C7.73755 13.7126 7.9076 13.718 8.08563 13.718C8.08574 13.718 8.08581 13.718 8.08591 13.718C9.90408 13.718 12.2349 13.1475 12.2582 13.1417C12.3151 13.1278 12.3585 13.0819 12.3693 13.0242Z" fill="#73A1FB"/>
<path d="M6.78917 14.2227C6.84523 14.1863 6.87008 14.117 6.85018 14.0531C6.83035 13.9893 6.77065 13.9474 6.70359 13.9483C6.60409 13.9509 5.73 13.9903 5.66881 14.5469C5.65029 14.7132 5.69793 14.8651 5.81045 14.9985C6.12429 15.3704 6.97147 15.5915 8.39993 15.6743C8.56892 15.6844 8.74057 15.6895 8.9102 15.6895C10.7263 15.6895 11.9494 15.1209 12.0006 15.0967C12.0502 15.0732 12.083 15.0244 12.0859 14.9696C12.0888 14.9147 12.0615 14.8627 12.0146 14.8341L11.0793 14.2631C11.0468 14.2433 11.008 14.2367 10.9709 14.2443C10.965 14.2455 10.3711 14.3687 9.47487 14.4904C9.30527 14.5135 9.09289 14.5252 8.8437 14.5252C7.9484 14.5252 6.95256 14.3789 6.76158 14.2831C6.7588 14.2652 6.76232 14.2425 6.78917 14.2227Z" fill="#73A1FB"/>
<path d="M8.06385 17.4066C12.2237 17.4031 14.4563 16.6633 14.8864 16.1978C15.0387 16.0331 15.0551 15.8772 15.0422 15.7753C15.0102 15.5247 14.7819 15.3713 14.7561 15.3546C14.6936 15.3145 14.6098 15.325 14.5611 15.3811C14.5125 15.4373 14.5114 15.5194 14.5602 15.5755C14.5864 15.6093 14.6016 15.6658 14.5249 15.7426C14.3529 15.9032 12.6187 16.3906 9.73129 16.5371C9.33575 16.5576 8.92089 16.5681 8.4983 16.5681C5.91302 16.5681 4.02099 16.214 3.77262 16.0077C3.86834 15.8701 4.5376 15.6504 5.24932 15.5261C5.32952 15.5121 5.3837 15.4365 5.37128 15.356C5.35886 15.2756 5.2847 15.2203 5.20365 15.2308C5.18357 15.2335 5.11543 15.2376 5.03655 15.2424C3.86222 15.3141 2.50516 15.4739 2.43436 16.079C2.41286 16.2633 2.46764 16.4307 2.59726 16.5764C2.91441 16.9327 3.82598 17.4065 8.06371 17.4065C8.06378 17.4066 8.06378 17.4066 8.06385 17.4066Z" fill="#73A1FB"/>
<path d="M15.7034 16.3283C15.6446 16.3011 15.5751 16.3148 15.5313 16.3622C15.5252 16.3688 14.8997 17.0227 13.0193 17.4068C12.2994 17.551 10.948 17.6242 9.00283 17.6242C7.05398 17.6242 5.19954 17.5475 5.18107 17.5467C5.10361 17.5429 5.03736 17.5993 5.02682 17.6755C5.01625 17.7517 5.06537 17.8235 5.14017 17.8413C5.15946 17.8459 7.1029 18.3012 9.76012 18.3012C11.0346 18.3012 12.2748 18.1977 13.4463 17.9934C15.6306 17.6105 15.7836 16.5274 15.789 16.4815C15.7966 16.4173 15.7621 16.3555 15.7034 16.3283Z" fill="#73A1FB"/>
</g>
<defs>
<clipPath id="clip0_1_4782">
<rect width="18.2264" height="18.2264" fill="white" transform="translate(0.0754395 0.0751953)"/>
</clipPath>
</defs>
</svg>
