<svg width="19" height="19" viewBox="0 0 19 19" fill="none" xmlns="http://www.w3.org/2000/svg">
<g clip-path="url(#clip0_1_4768)">
<path d="M9.18865 0.0751953H0.0754395V2.74508L10.2566 4.88099L9.18865 0.0751953Z" fill="#A1A1A1"/>
<path d="M9.1886 0.0751953H11.8585V4.34701H9.1886V0.0751953Z" fill="#828282"/>
<path d="M10.2566 2.74512H0.0754395V5.415L10.2566 8.08489V2.74512Z" fill="#636363"/>
<path d="M9.1886 7.55087L18.3018 5.41497V0.0751953H11.8585L9.1886 2.74508V7.55087Z" fill="#434343"/>
<path d="M18.3019 5.41504H9.18869L4.91687 11.8584L9.18869 18.3017H18.3019V5.41504Z" fill="#0FDBFF"/>
<path d="M0.0754395 5.41504H9.18865V18.3017H0.0754395V5.41504Z" fill="#80EEFF"/>
<path d="M2.2113 15.0981H3.27926V13.4605H6.15088V8.61914H2.2113V15.0981ZM3.27926 9.68709H5.08293V12.3926H3.27926V9.68709Z" fill="white"/>
<path d="M12.2263 8.61914V15.0981H13.2943V13.4605H16.1659V8.61914H12.2263ZM15.0979 12.3926H13.2943V9.68709H15.0979V12.3926Z" fill="#C2F7FF"/>
<path d="M10.0905 8.61914V11.3246H9.18864L8.65466 11.8408L9.18864 12.3926H10.0905V15.0981H11.1584V8.61914H10.0905Z" fill="#C2F7FF"/>
<path d="M8.28683 11.3246V8.61914H7.21887V15.0981H8.28683V12.3926H9.18864V11.3246H8.28683Z" fill="white"/>
</g>
<defs>
<clipPath id="clip0_1_4768">
<rect width="18.2264" height="18.2264" fill="white" transform="translate(0.0754395 0.0751953)"/>
</clipPath>
</defs>
</svg>
