<svg width="172" height="142" viewBox="0 0 172 142" fill="none" xmlns="http://www.w3.org/2000/svg">
<path d="M162.956 0.550183L164.314 0.550183L164.314 2.84618L166.638 2.84618L166.638 4.24618L164.314 4.24618L164.314 6.54218L162.956 6.54218L162.956 4.24618L160.548 4.24618L160.548 2.84618L162.956 2.84618L162.956 0.550183Z" fill="#FF6652"/>
<path d="M162.956 15.5502L164.314 15.5502L164.314 17.8462L166.638 17.8462L166.638 19.2462L164.314 19.2462L164.314 21.5422L162.956 21.5422L162.956 19.2462L160.548 19.2462L160.548 17.8462L162.956 17.8462L162.956 15.5502Z" fill="#FF6652"/>
<path d="M162.956 30.5502L164.314 30.5502L164.314 32.8462L166.638 32.8462L166.638 34.2462L164.314 34.2462L164.314 36.5422L162.956 36.5422L162.956 34.2462L160.548 34.2462L160.548 32.8462L162.956 32.8462L162.956 30.5502Z" fill="#FF6652"/>
<path d="M162.956 45.5502L164.314 45.5502L164.314 47.8462L166.638 47.8462L166.638 49.2462L164.314 49.2462L164.314 51.5422L162.956 51.5422L162.956 49.2462L160.548 49.2462L160.548 47.8462L162.956 47.8462L162.956 45.5502Z" fill="#FF6652"/>
<path d="M162.956 60.5502L164.314 60.5502L164.314 62.8462L166.638 62.8462L166.638 64.2462L164.314 64.2462L164.314 66.5422L162.956 66.5422L162.956 64.2462L160.548 64.2462L160.548 62.8462L162.956 62.8462L162.956 60.5502Z" fill="#FF6652"/>
<path d="M162.956 75.5502L164.314 75.5502L164.314 77.8462L166.638 77.8462L166.638 79.2462L164.314 79.2462L164.314 81.5422L162.956 81.5422L162.956 79.2462L160.548 79.2462L160.548 77.8462L162.956 77.8462L162.956 75.5502Z" fill="#FF6652"/>
<path d="M162.956 90.5502L164.314 90.5502L164.314 92.8462L166.638 92.8462L166.638 94.2462L164.314 94.2462L164.314 96.5422L162.956 96.5422L162.956 94.2462L160.548 94.2462L160.548 92.8462L162.956 92.8462L162.956 90.5502Z" fill="#FF6652"/>
<path d="M162.956 105.55L164.314 105.55L164.314 107.846L166.638 107.846L166.638 109.246L164.314 109.246L164.314 111.542L162.956 111.542L162.956 109.246L160.548 109.246L160.548 107.846L162.956 107.846L162.956 105.55Z" fill="#FF6652"/>
<path d="M162.956 120.55L164.314 120.55L164.314 122.846L166.638 122.846L166.638 124.246L164.314 124.246L164.314 126.542L162.956 126.542L162.956 124.246L160.548 124.246L160.548 122.846L162.956 122.846L162.956 120.55Z" fill="#FF6652"/>
<path d="M162.956 135.55L164.314 135.55L164.314 137.846L166.638 137.846L166.638 139.246L164.314 139.246L164.314 141.542L162.956 141.542L162.956 139.246L160.548 139.246L160.548 137.846L162.956 137.846L162.956 135.55Z" fill="#FF6652"/>
<path d="M145.178 0.550183L146.536 0.550183L146.536 2.84618L148.86 2.84618L148.86 4.24618L146.536 4.24618L146.536 6.54218L145.178 6.54218L145.178 4.24618L142.77 4.24618L142.77 2.84618L145.178 2.84618L145.178 0.550183Z" fill="#FF6652"/>
<path d="M145.178 15.5502L146.536 15.5502L146.536 17.8462L148.86 17.8462L148.86 19.2462L146.536 19.2462L146.536 21.5422L145.178 21.5422L145.178 19.2462L142.77 19.2462L142.77 17.8462L145.178 17.8462L145.178 15.5502Z" fill="#FF6652"/>
<path d="M145.178 30.5502L146.536 30.5502L146.536 32.8462L148.86 32.8462L148.86 34.2462L146.536 34.2462L146.536 36.5422L145.178 36.5422L145.178 34.2462L142.77 34.2462L142.77 32.8462L145.178 32.8462L145.178 30.5502Z" fill="#FF6652"/>
<path d="M145.178 45.5502L146.536 45.5502L146.536 47.8462L148.86 47.8462L148.86 49.2462L146.536 49.2462L146.536 51.5422L145.178 51.5422L145.178 49.2462L142.77 49.2462L142.77 47.8462L145.178 47.8462L145.178 45.5502Z" fill="#FF6652"/>
<path d="M145.178 60.5502L146.536 60.5502L146.536 62.8462L148.86 62.8462L148.86 64.2462L146.536 64.2462L146.536 66.5422L145.178 66.5422L145.178 64.2462L142.77 64.2462L142.77 62.8462L145.178 62.8462L145.178 60.5502Z" fill="#FF6652"/>
<path d="M145.178 75.5502L146.536 75.5502L146.536 77.8462L148.86 77.8462L148.86 79.2462L146.536 79.2462L146.536 81.5422L145.178 81.5422L145.178 79.2462L142.77 79.2462L142.77 77.8462L145.178 77.8462L145.178 75.5502Z" fill="#FF6652"/>
<path d="M145.178 90.5502L146.536 90.5502L146.536 92.8462L148.86 92.8462L148.86 94.2462L146.536 94.2462L146.536 96.5422L145.178 96.5422L145.178 94.2462L142.77 94.2462L142.77 92.8462L145.178 92.8462L145.178 90.5502Z" fill="#FF6652"/>
<path d="M145.178 105.55L146.536 105.55L146.536 107.846L148.86 107.846L148.86 109.246L146.536 109.246L146.536 111.542L145.178 111.542L145.178 109.246L142.77 109.246L142.77 107.846L145.178 107.846L145.178 105.55Z" fill="#FF6652"/>
<path d="M145.178 120.55L146.536 120.55L146.536 122.846L148.86 122.846L148.86 124.246L146.536 124.246L146.536 126.542L145.178 126.542L145.178 124.246L142.77 124.246L142.77 122.846L145.178 122.846L145.178 120.55Z" fill="#FF6652"/>
<path d="M145.178 135.55L146.536 135.55L146.536 137.846L148.86 137.846L148.86 139.246L146.536 139.246L146.536 141.542L145.178 141.542L145.178 139.246L142.77 139.246L142.77 137.846L145.178 137.846L145.178 135.55Z" fill="#FF6652"/>
<path d="M127.401 0.550183L128.759 0.550183L128.759 2.84618L131.083 2.84618L131.083 4.24618L128.759 4.24618L128.759 6.54218L127.401 6.54218L127.401 4.24618L124.993 4.24618L124.993 2.84618L127.401 2.84618L127.401 0.550183Z" fill="#FF6652"/>
<path d="M127.401 15.5502L128.759 15.5502L128.759 17.8462L131.083 17.8462L131.083 19.2462L128.759 19.2462L128.759 21.5422L127.401 21.5422L127.401 19.2462L124.993 19.2462L124.993 17.8462L127.401 17.8462L127.401 15.5502Z" fill="#FF6652"/>
<path d="M127.401 30.5502L128.759 30.5502L128.759 32.8462L131.083 32.8462L131.083 34.2462L128.759 34.2462L128.759 36.5422L127.401 36.5422L127.401 34.2462L124.993 34.2462L124.993 32.8462L127.401 32.8462L127.401 30.5502Z" fill="#FF6652"/>
<path d="M127.401 45.5502L128.759 45.5502L128.759 47.8462L131.083 47.8462L131.083 49.2462L128.759 49.2462L128.759 51.5422L127.401 51.5422L127.401 49.2462L124.993 49.2462L124.993 47.8462L127.401 47.8462L127.401 45.5502Z" fill="#FF6652"/>
<path d="M127.401 60.5502L128.759 60.5502L128.759 62.8462L131.083 62.8462L131.083 64.2462L128.759 64.2462L128.759 66.5422L127.401 66.5422L127.401 64.2462L124.993 64.2462L124.993 62.8462L127.401 62.8462L127.401 60.5502Z" fill="#FF6652"/>
<path d="M127.401 75.5502L128.759 75.5502L128.759 77.8462L131.083 77.8462L131.083 79.2462L128.759 79.2462L128.759 81.5422L127.401 81.5422L127.401 79.2462L124.993 79.2462L124.993 77.8462L127.401 77.8462L127.401 75.5502Z" fill="#FF6652"/>
<path d="M127.401 90.5502L128.759 90.5502L128.759 92.8462L131.083 92.8462L131.083 94.2462L128.759 94.2462L128.759 96.5422L127.401 96.5422L127.401 94.2462L124.993 94.2462L124.993 92.8462L127.401 92.8462L127.401 90.5502Z" fill="#FF6652"/>
<path d="M127.401 105.55L128.759 105.55L128.759 107.846L131.083 107.846L131.083 109.246L128.759 109.246L128.759 111.542L127.401 111.542L127.401 109.246L124.993 109.246L124.993 107.846L127.401 107.846L127.401 105.55Z" fill="#FF6652"/>
<path d="M127.401 120.55L128.759 120.55L128.759 122.846L131.083 122.846L131.083 124.246L128.759 124.246L128.759 126.542L127.401 126.542L127.401 124.246L124.993 124.246L124.993 122.846L127.401 122.846L127.401 120.55Z" fill="#FF6652"/>
<path d="M127.401 135.55L128.759 135.55L128.759 137.846L131.083 137.846L131.083 139.246L128.759 139.246L128.759 141.542L127.401 141.542L127.401 139.246L124.993 139.246L124.993 137.846L127.401 137.846L127.401 135.55Z" fill="#FF6652"/>
<path d="M109.623 0.550183L110.981 0.550183L110.981 2.84618L113.305 2.84618L113.305 4.24618L110.981 4.24618L110.981 6.54218L109.623 6.54218L109.623 4.24618L107.215 4.24618L107.215 2.84618L109.623 2.84618L109.623 0.550183Z" fill="#FF6652"/>
<path d="M109.623 15.5502L110.981 15.5502L110.981 17.8462L113.305 17.8462L113.305 19.2462L110.981 19.2462L110.981 21.5422L109.623 21.5422L109.623 19.2462L107.215 19.2462L107.215 17.8462L109.623 17.8462L109.623 15.5502Z" fill="#FF6652"/>
<path d="M109.623 30.5502L110.981 30.5502L110.981 32.8462L113.305 32.8462L113.305 34.2462L110.981 34.2462L110.981 36.5422L109.623 36.5422L109.623 34.2462L107.215 34.2462L107.215 32.8462L109.623 32.8462L109.623 30.5502Z" fill="#FF6652"/>
<path d="M109.623 45.5502L110.981 45.5502L110.981 47.8462L113.305 47.8462L113.305 49.2462L110.981 49.2462L110.981 51.5422L109.623 51.5422L109.623 49.2462L107.215 49.2462L107.215 47.8462L109.623 47.8462L109.623 45.5502Z" fill="#FF6652"/>
<path d="M109.623 60.5502L110.981 60.5502L110.981 62.8462L113.305 62.8462L113.305 64.2462L110.981 64.2462L110.981 66.5422L109.623 66.5422L109.623 64.2462L107.215 64.2462L107.215 62.8462L109.623 62.8462L109.623 60.5502Z" fill="#FF6652"/>
<path d="M109.623 75.5502L110.981 75.5502L110.981 77.8462L113.305 77.8462L113.305 79.2462L110.981 79.2462L110.981 81.5422L109.623 81.5422L109.623 79.2462L107.215 79.2462L107.215 77.8462L109.623 77.8462L109.623 75.5502Z" fill="#FF6652"/>
<path d="M109.623 90.5502L110.981 90.5502L110.981 92.8462L113.305 92.8462L113.305 94.2462L110.981 94.2462L110.981 96.5422L109.623 96.5422L109.623 94.2462L107.215 94.2462L107.215 92.8462L109.623 92.8462L109.623 90.5502Z" fill="#FF6652"/>
<path d="M109.623 105.55L110.981 105.55L110.981 107.846L113.305 107.846L113.305 109.246L110.981 109.246L110.981 111.542L109.623 111.542L109.623 109.246L107.215 109.246L107.215 107.846L109.623 107.846L109.623 105.55Z" fill="#FF6652"/>
<path d="M109.623 120.55L110.981 120.55L110.981 122.846L113.305 122.846L113.305 124.246L110.981 124.246L110.981 126.542L109.623 126.542L109.623 124.246L107.215 124.246L107.215 122.846L109.623 122.846L109.623 120.55Z" fill="#FF6652"/>
<path d="M109.623 135.55L110.981 135.55L110.981 137.846L113.305 137.846L113.305 139.246L110.981 139.246L110.981 141.542L109.623 141.542L109.623 139.246L107.215 139.246L107.215 137.846L109.623 137.846L109.623 135.55Z" fill="#FF6652"/>
<path d="M91.845 0.550183L93.203 0.550183L93.203 2.84618L95.527 2.84618L95.527 4.24618L93.203 4.24618L93.203 6.54218L91.845 6.54218L91.845 4.24618L89.437 4.24618L89.437 2.84618L91.845 2.84618L91.845 0.550183Z" fill="#FF6652"/>
<path d="M91.845 15.5502L93.203 15.5502L93.203 17.8462L95.527 17.8462L95.527 19.2462L93.203 19.2462L93.203 21.5422L91.845 21.5422L91.845 19.2462L89.437 19.2462L89.437 17.8462L91.845 17.8462L91.845 15.5502Z" fill="#FF6652"/>
<path d="M91.845 30.5502L93.203 30.5502L93.203 32.8462L95.527 32.8462L95.527 34.2462L93.203 34.2462L93.203 36.5422L91.845 36.5422L91.845 34.2462L89.437 34.2462L89.437 32.8462L91.845 32.8462L91.845 30.5502Z" fill="#FF6652"/>
<path d="M91.845 45.5502L93.203 45.5502L93.203 47.8462L95.527 47.8462L95.527 49.2462L93.203 49.2462L93.203 51.5422L91.845 51.5422L91.845 49.2462L89.437 49.2462L89.437 47.8462L91.845 47.8462L91.845 45.5502Z" fill="#FF6652"/>
<path d="M91.845 60.5502L93.203 60.5502L93.203 62.8462L95.527 62.8462L95.527 64.2462L93.203 64.2462L93.203 66.5422L91.845 66.5422L91.845 64.2462L89.437 64.2462L89.437 62.8462L91.845 62.8462L91.845 60.5502Z" fill="#FF6652"/>
<path d="M91.845 75.5502L93.203 75.5502L93.203 77.8462L95.527 77.8462L95.527 79.2462L93.203 79.2462L93.203 81.5422L91.845 81.5422L91.845 79.2462L89.437 79.2462L89.437 77.8462L91.845 77.8462L91.845 75.5502Z" fill="#FF6652"/>
<path d="M91.845 90.5502L93.203 90.5502L93.203 92.8462L95.527 92.8462L95.527 94.2462L93.203 94.2462L93.203 96.5422L91.845 96.5422L91.845 94.2462L89.437 94.2462L89.437 92.8462L91.845 92.8462L91.845 90.5502Z" fill="#FF6652"/>
<path d="M91.845 105.55L93.203 105.55L93.203 107.846L95.527 107.846L95.527 109.246L93.203 109.246L93.203 111.542L91.845 111.542L91.845 109.246L89.437 109.246L89.437 107.846L91.845 107.846L91.845 105.55Z" fill="#FF6652"/>
<path d="M91.845 120.55L93.203 120.55L93.203 122.846L95.527 122.846L95.527 124.246L93.203 124.246L93.203 126.542L91.845 126.542L91.845 124.246L89.437 124.246L89.437 122.846L91.845 122.846L91.845 120.55Z" fill="#FF6652"/>
<path d="M91.845 135.55L93.203 135.55L93.203 137.846L95.527 137.846L95.527 139.246L93.203 139.246L93.203 141.542L91.845 141.542L91.845 139.246L89.437 139.246L89.437 137.846L91.845 137.846L91.845 135.55Z" fill="#FF6652"/>
<path d="M74.0672 0.550183L75.4252 0.550183L75.4252 2.84618L77.7492 2.84618L77.7492 4.24618L75.4252 4.24618L75.4252 6.54218L74.0672 6.54218L74.0672 4.24618L71.6592 4.24618L71.6592 2.84618L74.0672 2.84618L74.0672 0.550183Z" fill="#FF6652"/>
<path d="M74.0672 15.5502L75.4252 15.5502L75.4252 17.8462L77.7492 17.8462L77.7492 19.2462L75.4252 19.2462L75.4252 21.5422L74.0672 21.5422L74.0672 19.2462L71.6592 19.2462L71.6592 17.8462L74.0672 17.8462L74.0672 15.5502Z" fill="#FF6652"/>
<path d="M74.0672 30.5502L75.4252 30.5502L75.4252 32.8462L77.7492 32.8462L77.7492 34.2462L75.4252 34.2462L75.4252 36.5422L74.0672 36.5422L74.0672 34.2462L71.6592 34.2462L71.6592 32.8462L74.0672 32.8462L74.0672 30.5502Z" fill="#FF6652"/>
<path d="M74.0672 45.5502L75.4252 45.5502L75.4252 47.8462L77.7492 47.8462L77.7492 49.2462L75.4252 49.2462L75.4252 51.5422L74.0672 51.5422L74.0672 49.2462L71.6592 49.2462L71.6592 47.8462L74.0672 47.8462L74.0672 45.5502Z" fill="#FF6652"/>
<path d="M74.0672 60.5502L75.4252 60.5502L75.4252 62.8462L77.7492 62.8462L77.7492 64.2462L75.4252 64.2462L75.4252 66.5422L74.0672 66.5422L74.0672 64.2462L71.6592 64.2462L71.6592 62.8462L74.0672 62.8462L74.0672 60.5502Z" fill="#FF6652"/>
<path d="M74.0672 75.5502L75.4252 75.5502L75.4252 77.8462L77.7492 77.8462L77.7492 79.2462L75.4252 79.2462L75.4252 81.5422L74.0672 81.5422L74.0672 79.2462L71.6592 79.2462L71.6592 77.8462L74.0672 77.8462L74.0672 75.5502Z" fill="#FF6652"/>
<path d="M74.0672 90.5502L75.4252 90.5502L75.4252 92.8462L77.7492 92.8462L77.7492 94.2462L75.4252 94.2462L75.4252 96.5422L74.0672 96.5422L74.0672 94.2462L71.6592 94.2462L71.6592 92.8462L74.0672 92.8462L74.0672 90.5502Z" fill="#FF6652"/>
<path d="M74.0672 105.55L75.4252 105.55L75.4252 107.846L77.7492 107.846L77.7492 109.246L75.4252 109.246L75.4252 111.542L74.0672 111.542L74.0672 109.246L71.6592 109.246L71.6592 107.846L74.0672 107.846L74.0672 105.55Z" fill="#FF6652"/>
<path d="M74.0672 120.55L75.4252 120.55L75.4252 122.846L77.7492 122.846L77.7492 124.246L75.4252 124.246L75.4252 126.542L74.0672 126.542L74.0672 124.246L71.6592 124.246L71.6592 122.846L74.0672 122.846L74.0672 120.55Z" fill="#FF6652"/>
<path d="M74.0672 135.55L75.4252 135.55L75.4252 137.846L77.7492 137.846L77.7492 139.246L75.4252 139.246L75.4252 141.542L74.0672 141.542L74.0672 139.246L71.6592 139.246L71.6592 137.846L74.0672 137.846L74.0672 135.55Z" fill="#FF6652"/>
<path d="M56.2893 0.550183L57.6473 0.550183L57.6473 2.84618L59.9713 2.84618L59.9713 4.24618L57.6473 4.24618L57.6473 6.54218L56.2893 6.54218L56.2893 4.24618L53.8813 4.24618L53.8813 2.84618L56.2893 2.84618L56.2893 0.550183Z" fill="#FF6652"/>
<path d="M56.2893 15.5502L57.6473 15.5502L57.6473 17.8462L59.9713 17.8462L59.9713 19.2462L57.6473 19.2462L57.6473 21.5422L56.2893 21.5422L56.2893 19.2462L53.8813 19.2462L53.8813 17.8462L56.2893 17.8462L56.2893 15.5502Z" fill="#FF6652"/>
<path d="M56.2893 30.5502L57.6473 30.5502L57.6473 32.8462L59.9713 32.8462L59.9713 34.2462L57.6473 34.2462L57.6473 36.5422L56.2893 36.5422L56.2893 34.2462L53.8813 34.2462L53.8813 32.8462L56.2893 32.8462L56.2893 30.5502Z" fill="#FF6652"/>
<path d="M56.2893 45.5502L57.6473 45.5502L57.6473 47.8462L59.9713 47.8462L59.9713 49.2462L57.6473 49.2462L57.6473 51.5422L56.2893 51.5422L56.2893 49.2462L53.8813 49.2462L53.8813 47.8462L56.2893 47.8462L56.2893 45.5502Z" fill="#FF6652"/>
<path d="M56.2893 60.5502L57.6473 60.5502L57.6473 62.8462L59.9713 62.8462L59.9713 64.2462L57.6473 64.2462L57.6473 66.5422L56.2893 66.5422L56.2893 64.2462L53.8813 64.2462L53.8813 62.8462L56.2893 62.8462L56.2893 60.5502Z" fill="#FF6652"/>
<path d="M56.2893 75.5502L57.6473 75.5502L57.6473 77.8462L59.9713 77.8462L59.9713 79.2462L57.6473 79.2462L57.6473 81.5422L56.2893 81.5422L56.2893 79.2462L53.8813 79.2462L53.8813 77.8462L56.2893 77.8462L56.2893 75.5502Z" fill="#FF6652"/>
<path d="M56.2893 90.5502L57.6473 90.5502L57.6473 92.8462L59.9713 92.8462L59.9713 94.2462L57.6473 94.2462L57.6473 96.5422L56.2893 96.5422L56.2893 94.2462L53.8813 94.2462L53.8813 92.8462L56.2893 92.8462L56.2893 90.5502Z" fill="#FF6652"/>
<path d="M56.2893 105.55L57.6473 105.55L57.6473 107.846L59.9713 107.846L59.9713 109.246L57.6473 109.246L57.6473 111.542L56.2893 111.542L56.2893 109.246L53.8813 109.246L53.8813 107.846L56.2893 107.846L56.2893 105.55Z" fill="#FF6652"/>
<path d="M56.2893 120.55L57.6473 120.55L57.6473 122.846L59.9713 122.846L59.9713 124.246L57.6473 124.246L57.6473 126.542L56.2893 126.542L56.2893 124.246L53.8813 124.246L53.8813 122.846L56.2893 122.846L56.2893 120.55Z" fill="#FF6652"/>
<path d="M56.2893 135.55L57.6473 135.55L57.6473 137.846L59.9713 137.846L59.9713 139.246L57.6473 139.246L57.6473 141.542L56.2893 141.542L56.2893 139.246L53.8813 139.246L53.8813 137.846L56.2893 137.846L56.2893 135.55Z" fill="#FF6652"/>
<path d="M38.5115 0.550183L39.8695 0.550183L39.8695 2.84618L42.1935 2.84618L42.1935 4.24618L39.8695 4.24618L39.8695 6.54218L38.5115 6.54218L38.5115 4.24618L36.1035 4.24618L36.1035 2.84618L38.5115 2.84618L38.5115 0.550183Z" fill="#FF6652"/>
<path d="M38.5115 15.5502L39.8695 15.5502L39.8695 17.8462L42.1935 17.8462L42.1935 19.2462L39.8695 19.2462L39.8695 21.5422L38.5115 21.5422L38.5115 19.2462L36.1035 19.2462L36.1035 17.8462L38.5115 17.8462L38.5115 15.5502Z" fill="#FF6652"/>
<path d="M38.5115 30.5502L39.8695 30.5502L39.8695 32.8462L42.1935 32.8462L42.1935 34.2462L39.8695 34.2462L39.8695 36.5422L38.5115 36.5422L38.5115 34.2462L36.1035 34.2462L36.1035 32.8462L38.5115 32.8462L38.5115 30.5502Z" fill="#FF6652"/>
<path d="M38.5115 45.5502L39.8695 45.5502L39.8695 47.8462L42.1935 47.8462L42.1935 49.2462L39.8695 49.2462L39.8695 51.5422L38.5115 51.5422L38.5115 49.2462L36.1035 49.2462L36.1035 47.8462L38.5115 47.8462L38.5115 45.5502Z" fill="#FF6652"/>
<path d="M38.5115 60.5502L39.8695 60.5502L39.8695 62.8462L42.1935 62.8462L42.1935 64.2462L39.8695 64.2462L39.8695 66.5422L38.5115 66.5422L38.5115 64.2462L36.1035 64.2462L36.1035 62.8462L38.5115 62.8462L38.5115 60.5502Z" fill="#FF6652"/>
<path d="M38.5115 75.5502L39.8695 75.5502L39.8695 77.8462L42.1935 77.8462L42.1935 79.2462L39.8695 79.2462L39.8695 81.5422L38.5115 81.5422L38.5115 79.2462L36.1035 79.2462L36.1035 77.8462L38.5115 77.8462L38.5115 75.5502Z" fill="#FF6652"/>
<path d="M38.5115 90.5502L39.8695 90.5502L39.8695 92.8462L42.1935 92.8462L42.1935 94.2462L39.8695 94.2462L39.8695 96.5422L38.5115 96.5422L38.5115 94.2462L36.1035 94.2462L36.1035 92.8462L38.5115 92.8462L38.5115 90.5502Z" fill="#FF6652"/>
<path d="M38.5115 105.55L39.8695 105.55L39.8695 107.846L42.1935 107.846L42.1935 109.246L39.8695 109.246L39.8695 111.542L38.5115 111.542L38.5115 109.246L36.1035 109.246L36.1035 107.846L38.5115 107.846L38.5115 105.55Z" fill="#FF6652"/>
<path d="M38.5115 120.55L39.8695 120.55L39.8695 122.846L42.1935 122.846L42.1935 124.246L39.8695 124.246L39.8695 126.542L38.5115 126.542L38.5115 124.246L36.1035 124.246L36.1035 122.846L38.5115 122.846L38.5115 120.55Z" fill="#FF6652"/>
<path d="M38.5115 135.55L39.8695 135.55L39.8695 137.846L42.1935 137.846L42.1935 139.246L39.8695 139.246L39.8695 141.542L38.5115 141.542L38.5115 139.246L36.1035 139.246L36.1035 137.846L38.5115 137.846L38.5115 135.55Z" fill="#FF6652"/>
<path d="M20.7337 0.550183L22.0917 0.550183L22.0917 2.84618L24.4157 2.84618L24.4157 4.24618L22.0917 4.24618L22.0917 6.54218L20.7337 6.54218L20.7337 4.24618L18.3257 4.24618L18.3257 2.84618L20.7337 2.84618L20.7337 0.550183Z" fill="#FF6652"/>
<path d="M20.7337 15.5502L22.0917 15.5502L22.0917 17.8462L24.4157 17.8462L24.4157 19.2462L22.0917 19.2462L22.0917 21.5422L20.7337 21.5422L20.7337 19.2462L18.3257 19.2462L18.3257 17.8462L20.7337 17.8462L20.7337 15.5502Z" fill="#FF6652"/>
<path d="M20.7337 30.5502L22.0917 30.5502L22.0917 32.8462L24.4157 32.8462L24.4157 34.2462L22.0917 34.2462L22.0917 36.5422L20.7337 36.5422L20.7337 34.2462L18.3257 34.2462L18.3257 32.8462L20.7337 32.8462L20.7337 30.5502Z" fill="#FF6652"/>
<path d="M20.7337 45.5502L22.0917 45.5502L22.0917 47.8462L24.4157 47.8462L24.4157 49.2462L22.0917 49.2462L22.0917 51.5422L20.7337 51.5422L20.7337 49.2462L18.3257 49.2462L18.3257 47.8462L20.7337 47.8462L20.7337 45.5502Z" fill="#FF6652"/>
<path d="M20.7337 60.5502L22.0917 60.5502L22.0917 62.8462L24.4157 62.8462L24.4157 64.2462L22.0917 64.2462L22.0917 66.5422L20.7337 66.5422L20.7337 64.2462L18.3257 64.2462L18.3257 62.8462L20.7337 62.8462L20.7337 60.5502Z" fill="#FF6652"/>
<path d="M20.7337 75.5502L22.0917 75.5502L22.0917 77.8462L24.4157 77.8462L24.4157 79.2462L22.0917 79.2462L22.0917 81.5422L20.7337 81.5422L20.7337 79.2462L18.3257 79.2462L18.3257 77.8462L20.7337 77.8462L20.7337 75.5502Z" fill="#FF6652"/>
<path d="M20.7337 90.5502L22.0917 90.5502L22.0917 92.8462L24.4157 92.8462L24.4157 94.2462L22.0917 94.2462L22.0917 96.5422L20.7337 96.5422L20.7337 94.2462L18.3257 94.2462L18.3257 92.8462L20.7337 92.8462L20.7337 90.5502Z" fill="#FF6652"/>
<path d="M20.7337 105.55L22.0917 105.55L22.0917 107.846L24.4157 107.846L24.4157 109.246L22.0917 109.246L22.0917 111.542L20.7337 111.542L20.7337 109.246L18.3257 109.246L18.3257 107.846L20.7337 107.846L20.7337 105.55Z" fill="#FF6652"/>
<path d="M20.7337 120.55L22.0917 120.55L22.0917 122.846L24.4157 122.846L24.4157 124.246L22.0917 124.246L22.0917 126.542L20.7337 126.542L20.7337 124.246L18.3257 124.246L18.3257 122.846L20.7337 122.846L20.7337 120.55Z" fill="#FF6652"/>
<path d="M20.7337 135.55L22.0917 135.55L22.0917 137.846L24.4157 137.846L24.4157 139.246L22.0917 139.246L22.0917 141.542L20.7337 141.542L20.7337 139.246L18.3257 139.246L18.3257 137.846L20.7337 137.846L20.7337 135.55Z" fill="#FF6652"/>
<path d="M2.95583 0.550183L4.31383 0.550183L4.31383 2.84618L6.63783 2.84618L6.63783 4.24618L4.31383 4.24618L4.31383 6.54218L2.95583 6.54218L2.95583 4.24618L0.547832 4.24618L0.547832 2.84618L2.95583 2.84618L2.95583 0.550183Z" fill="#FF6652"/>
<path d="M2.95583 15.5502L4.31383 15.5502L4.31383 17.8462L6.63783 17.8462L6.63783 19.2462L4.31383 19.2462L4.31383 21.5422L2.95583 21.5422L2.95583 19.2462L0.547832 19.2462L0.547832 17.8462L2.95583 17.8462L2.95583 15.5502Z" fill="#FF6652"/>
<path d="M2.95583 30.5502L4.31383 30.5502L4.31383 32.8462L6.63783 32.8462L6.63783 34.2462L4.31383 34.2462L4.31383 36.5422L2.95583 36.5422L2.95583 34.2462L0.547832 34.2462L0.547832 32.8462L2.95583 32.8462L2.95583 30.5502Z" fill="#FF6652"/>
<path d="M2.95583 45.5502L4.31383 45.5502L4.31383 47.8462L6.63783 47.8462L6.63783 49.2462L4.31383 49.2462L4.31383 51.5422L2.95583 51.5422L2.95583 49.2462L0.547832 49.2462L0.547832 47.8462L2.95583 47.8462L2.95583 45.5502Z" fill="#FF6652"/>
<path d="M2.95583 60.5502L4.31383 60.5502L4.31383 62.8462L6.63783 62.8462L6.63783 64.2462L4.31383 64.2462L4.31383 66.5422L2.95583 66.5422L2.95583 64.2462L0.547832 64.2462L0.547832 62.8462L2.95583 62.8462L2.95583 60.5502Z" fill="#FF6652"/>
<path d="M2.95583 75.5502L4.31383 75.5502L4.31383 77.8462L6.63783 77.8462L6.63783 79.2462L4.31383 79.2462L4.31383 81.5422L2.95583 81.5422L2.95583 79.2462L0.547832 79.2462L0.547832 77.8462L2.95583 77.8462L2.95583 75.5502Z" fill="#FF6652"/>
<path d="M2.95583 90.5502L4.31383 90.5502L4.31383 92.8462L6.63783 92.8462L6.63783 94.2462L4.31383 94.2462L4.31383 96.5422L2.95583 96.5422L2.95583 94.2462L0.547832 94.2462L0.547832 92.8462L2.95583 92.8462L2.95583 90.5502Z" fill="#FF6652"/>
<path d="M2.95583 105.55L4.31383 105.55L4.31383 107.846L6.63783 107.846L6.63783 109.246L4.31383 109.246L4.31383 111.542L2.95583 111.542L2.95583 109.246L0.547832 109.246L0.547832 107.846L2.95583 107.846L2.95583 105.55Z" fill="#FF6652"/>
<path d="M2.95583 120.55L4.31383 120.55L4.31383 122.846L6.63783 122.846L6.63783 124.246L4.31383 124.246L4.31383 126.542L2.95583 126.542L2.95583 124.246L0.547832 124.246L0.547832 122.846L2.95583 122.846L2.95583 120.55Z" fill="#FF6652"/>
<path d="M2.95583 135.55L4.31383 135.55L4.31383 137.846L6.63783 137.846L6.63783 139.246L4.31383 139.246L4.31383 141.542L2.95583 141.542L2.95583 139.246L0.547832 139.246L0.547832 137.846L2.95583 137.846L2.95583 135.55Z" fill="#FF6652"/>
</svg>
