<svg width="72" height="12" viewBox="0 0 72 12" fill="none" xmlns="http://www.w3.org/2000/svg">
<path d="M11.9687 4.53466C11.8901 4.2811 11.6746 4.10101 11.4196 4.07703L7.95612 3.74887L6.58655 0.403834C6.48556 0.158687 6.25558 0 6.00005 0C5.74452 0 5.51453 0.158687 5.41355 0.404407L4.04398 3.74887L0.579907 4.07703C0.325385 4.10159 0.110414 4.2811 0.0314018 4.53466C-0.0476101 4.78821 0.0253592 5.06632 0.217899 5.24163L2.83591 7.6375L2.06392 11.186C2.00743 11.4469 2.10448 11.7166 2.31194 11.8731C2.42346 11.9572 2.55392 12 2.68549 12C2.79892 12 2.91144 11.9681 3.01243 11.905L6.00005 10.0418L8.98657 11.905C9.20511 12.0422 9.4806 12.0297 9.6876 11.8731C9.89516 11.7162 9.99212 11.4464 9.93563 11.186L9.16364 7.6375L11.7816 5.24211C11.9742 5.06632 12.0477 4.78869 11.9687 4.53466Z" fill="#FFC107"/>
<path d="M26.9687 4.53466C26.8901 4.2811 26.6746 4.10101 26.4196 4.07703L22.9561 3.74887L21.5865 0.403834C21.4856 0.158687 21.2556 0 21 0C20.7445 0 20.5145 0.158687 20.4135 0.404407L19.044 3.74887L15.5799 4.07703C15.3254 4.10159 15.1104 4.2811 15.0314 4.53466C14.9524 4.78821 15.0254 5.06632 15.2179 5.24163L17.8359 7.6375L17.0639 11.186C17.0074 11.4469 17.1045 11.7166 17.3119 11.8731C17.4235 11.9572 17.5539 12 17.6855 12C17.7989 12 17.9114 11.9681 18.0124 11.905L21 10.0418L23.9866 11.905C24.2051 12.0422 24.4806 12.0297 24.6876 11.8731C24.8952 11.7162 24.9921 11.4464 24.9356 11.186L24.1636 7.6375L26.7816 5.24211C26.9742 5.06632 27.0477 4.78869 26.9687 4.53466Z" fill="#FFC107"/>
<path d="M41.9687 4.53466C41.8901 4.2811 41.6746 4.10101 41.4196 4.07703L37.9561 3.74887L36.5865 0.403834C36.4856 0.158687 36.2556 0 36 0C35.7445 0 35.5145 0.158687 35.4135 0.404407L34.044 3.74887L30.5799 4.07703C30.3254 4.10159 30.1104 4.2811 30.0314 4.53466C29.9524 4.78821 30.0254 5.06632 30.2179 5.24163L32.8359 7.6375L32.0639 11.186C32.0074 11.4469 32.1045 11.7166 32.3119 11.8731C32.4235 11.9572 32.5539 12 32.6855 12C32.7989 12 32.9114 11.9681 33.0124 11.905L36 10.0418L38.9866 11.905C39.2051 12.0422 39.4806 12.0297 39.6876 11.8731C39.8952 11.7162 39.9921 11.4464 39.9356 11.186L39.1636 7.6375L41.7816 5.24211C41.9742 5.06632 42.0477 4.78869 41.9687 4.53466Z" fill="#FFC107"/>
<path d="M56.9687 4.53466C56.8901 4.2811 56.6746 4.10101 56.4196 4.07703L52.9561 3.74887L51.5865 0.403834C51.4856 0.158687 51.2556 0 51 0C50.7445 0 50.5145 0.158687 50.4135 0.404407L49.044 3.74887L45.5799 4.07703C45.3254 4.10159 45.1104 4.2811 45.0314 4.53466C44.9524 4.78821 45.0254 5.06632 45.2179 5.24163L47.8359 7.6375L47.0639 11.186C47.0074 11.4469 47.1045 11.7166 47.3119 11.8731C47.4235 11.9572 47.5539 12 47.6855 12C47.7989 12 47.9114 11.9681 48.0124 11.905L51 10.0418L53.9866 11.905C54.2051 12.0422 54.4806 12.0297 54.6876 11.8731C54.8952 11.7162 54.9921 11.4464 54.9356 11.186L54.1636 7.6375L56.7816 5.24211C56.9742 5.06632 57.0477 4.78869 56.9687 4.53466Z" fill="#FFC107"/>
<path d="M71.9687 4.53466C71.8901 4.2811 71.6746 4.10101 71.4196 4.07703L67.9561 3.74887L66.5865 0.403834C66.4856 0.158687 66.2556 0 66 0C65.7445 0 65.5145 0.158687 65.4135 0.404407L64.044 3.74887L60.5799 4.07703C60.3254 4.10159 60.1104 4.2811 60.0314 4.53466C59.9524 4.78821 60.0254 5.06632 60.2179 5.24163L62.8359 7.6375L62.0639 11.186C62.0074 11.4469 62.1045 11.7166 62.3119 11.8731C62.4235 11.9572 62.5539 12 62.6855 12C62.7989 12 62.9114 11.9681 63.0124 11.905L66 10.0418L68.9866 11.905C69.2051 12.0422 69.4806 12.0297 69.6876 11.8731C69.8952 11.7162 69.9921 11.4464 69.9356 11.186L69.1636 7.6375L71.7816 5.24211C71.9742 5.06632 72.0477 4.78869 71.9687 4.53466Z" fill="#FFC107"/>
</svg>
